HIERARCHY
ROOT Hips
{
	OFFSET -0.001795 -0.223333 0.028219
	CHANNELS 6 Xposition Yposition Zposition Zrotation Yrotation Xrotation 
	JOINT LeftUpLeg
	{
		OFFSET 0.069520 -0.091406 -0.006815
		CHANNELS 3 Zrotation Yrotation Xrotation
		JOINT LeftLeg
		{
			OFFSET 0.034277 -0.375199 -0.004496
			CHANNELS 3 Zrotation Yrotation Xrotation
			JOINT LeftFoot
			{
				OFFSET -0.013596 -0.397961 -0.043693
				CHANNELS 3 Zrotation Yrotation Xrotation
				JOINT LeftToe
				{
					OFFSET 0.026358 -0.055791 0.119288
					CHANNELS 3 Zrotation Yrotation Xrotation
					End Site
					{
						OFFSET 0.000000 0.000000 0.000000
					}
				}
			}
		}
	}
	JOINT RightUpLeg
	{
		OFFSET -0.067670 -0.090522 -0.004320
		CHANNELS 3 Zrotation Yrotation Xrotation
		JOINT RightLeg
		{
			OFFSET -0.038290 -0.382569 -0.008850
			CHANNELS 3 Zrotation Yrotation Xrotation
			JOINT RightFoot
			{
				OFFSET 0.015774 -0.398415 -0.042312
				CHANNELS 3 Zrotation Yrotation Xrotation
				JOINT RightToe
				{
					OFFSET -0.025372 -0.048144 0.123348
					CHANNELS 3 Zrotation Yrotation Xrotation
					End Site
					{
						OFFSET 0.000000 0.000000 0.000000
					}
				}
			}
		}
	}
	JOINT Spine
	{
		OFFSET -0.002533 0.108963 -0.026696
		CHANNELS 3 Zrotation Yrotation Xrotation
		JOINT Spine1
		{
			OFFSET 0.005487 0.135180 0.001092
			CHANNELS 3 Zrotation Yrotation Xrotation
			JOINT Spine2
			{
				OFFSET 0.001457 0.052922 0.025425
				CHANNELS 3 Zrotation Yrotation Xrotation
				JOINT Neck
				{
					OFFSET -0.002778 0.213870 -0.042857
					CHANNELS 3 Zrotation Yrotation Xrotation
					JOINT Head
					{
						OFFSET 0.005152 0.064970 0.051349
						CHANNELS 3 Zrotation Yrotation Xrotation
						End Site
						{
							OFFSET 0.000000 0.000000 0.000000
						}
					}
				}
				JOINT LeftShoulder
				{
					OFFSET 0.078845 0.121749 -0.034090
					CHANNELS 3 Zrotation Yrotation Xrotation
					JOINT LeftArm
					{
						OFFSET 0.090977 0.030469 -0.008868
						CHANNELS 3 Zrotation Yrotation Xrotation
						JOINT LeftForeArm
						{
							OFFSET 0.259612 -0.012772 -0.027456
							CHANNELS 3 Zrotation Yrotation Xrotation
							JOINT LeftHand
							{
								OFFSET 0.249234 0.008986 -0.001171
								CHANNELS 3 Zrotation Yrotation Xrotation
								End Site
								{
									OFFSET 0.000000 0.000000 0.000000
								}
							}
						}
					}
				}
				JOINT RightShoulder
				{
					OFFSET -0.081759 0.118833 -0.038615
					CHANNELS 3 Zrotation Yrotation Xrotation
					JOINT RightArm
					{
						OFFSET -0.096012 0.032551 -0.009143
						CHANNELS 3 Zrotation Yrotation Xrotation
						JOINT RightForeArm
						{
							OFFSET -0.253742 -0.013329 -0.021401
							CHANNELS 3 Zrotation Yrotation Xrotation
							JOINT RightHand
							{
								OFFSET -0.255298 0.007772 -0.005559
								CHANNELS 3 Zrotation Yrotation Xrotation
								End Site
								{
									OFFSET 0.000000 0.000000 0.000000
								}
							}
						}
					}
				}
			}
		}
	}
}
MOTION
Frames: 8
Frame Time: 0.050000
0.006153 0.943706 1.374077 -0.288319 36.315651 -3.611995 3.117563 -1.677227 -15.912330 -5.954073 -0.356473 12.840062 -1.440343 7.881364 14.746279 0.000000 0.000000 0.000000 -2.205685 -0.407720 1.646956 6.958020 -6.966196 30.037780 -2.612426 -6.948681 2.887005 0.000000 0.000000 0.000000 -6.016658 -2.001964 25.302646 -8.969087 2.945738 -25.089095 0.868682 23.859952 30.335579 17.644420 -0.826099 -30.341069 0.000000 0.000000 0.000000 -17.414375 -14.494742 -7.000755 -32.793847 4.145095 -2.577098 -30.274278 -55.221213 9.770609 0.000000 0.000000 0.000000 25.313122 -0.276400 12.338680 55.192609 44.099755 13.189687 7.753356 54.579281 12.287228 0.000000 0.000000 0.000000 
0.015134 0.949433 1.399853 -1.492770 35.717782 -5.255083 4.611153 -1.153793 -12.627230 -6.278638 -0.282681 12.629458 -0.376341 8.439095 13.261776 0.000000 0.000000 0.000000 -5.274425 -0.342250 -4.343565 8.077314 -11.550292 41.693742 -1.528251 -4.711104 8.591084 0.000000 0.000000 0.000000 -6.418176 -1.963802 25.499540 -9.110295 3.202065 -23.418716 0.388783 22.767386 29.210708 16.864222 -0.793909 -29.743317 0.000000 0.000000 0.000000 -17.663362 -14.938880 -6.284963 -31.595439 2.785727 -2.078678 -27.423596 -56.465798 8.947384 0.000000 0.000000 0.000000 24.576322 0.850467 12.120478 57.011683 42.292411 13.204810 8.190277 52.614857 11.608313 0.000000 0.000000 0.000000 
0.021197 0.954415 1.424275 -3.044558 36.708566 -6.765576 5.614275 -0.920441 -10.389847 -5.163504 -0.365253 11.844646 -1.379093 7.227056 13.504521 0.000000 0.000000 0.000000 -6.924013 -0.637375 -6.907046 9.277284 -13.103964 42.872109 -3.292879 -8.367737 8.241959 0.000000 0.000000 0.000000 -5.948941 -2.400051 27.029866 -8.779964 3.156444 -23.507411 -0.510074 20.872909 28.563310 15.808335 -0.425089 -29.759492 0.000000 0.000000 0.000000 -18.175043 -15.067859 -5.872054 -30.059088 1.855209 -1.731739 -29.969773 -60.512433 11.616041 0.000000 0.000000 0.000000 24.182041 1.726904 11.994064 57.639150 40.284170 12.341091 7.642263 52.849950 11.273291 0.000000 0.000000 0.000000 
0.025272 0.958675 1.447380 -4.655339 37.266260 -7.909571 6.667853 -0.782477 -8.190436 -4.152829 -0.349544 10.247916 -1.042368 7.292286 12.713508 0.000000 0.000000 0.000000 -7.347214 -0.757308 -7.672590 10.340905 -11.641959 37.241565 -5.515029 -12.907367 6.922951 0.000000 0.000000 0.000000 -5.522851 -2.547101 27.042463 -8.113931 3.147990 -22.608324 -1.028344 19.855805 27.822975 16.336851 -0.803266 -30.061824 0.000000 0.000000 0.000000 -17.846289 -15.858581 -5.073054 -29.414505 0.560013 -1.406375 -33.742826 -64.930329 15.022569 0.000000 0.000000 0.000000 24.934804 2.127253 12.442073 56.421931 39.596634 11.110921 5.799505 52.935050 10.266870 0.000000 0.000000 0.000000 
0.027666 0.961040 1.468557 -5.729799 37.535123 -7.938685 7.302055 -0.767069 -7.144657 -3.907321 -0.309653 9.347575 -0.018632 8.175468 11.741432 0.000000 0.000000 0.000000 -7.471215 -0.790776 -7.908061 10.313875 -8.334015 28.190193 -7.767298 -17.050449 8.626161 0.000000 0.000000 0.000000 -5.014486 -2.668381 27.014280 -7.679257 2.995782 -23.182962 -0.915106 18.470044 27.596957 16.554729 -1.161260 -29.812116 0.000000 0.000000 0.000000 -17.975722 -15.874896 -4.824025 -28.942429 -0.253123 -1.209847 -37.469211 -68.394148 18.735679 0.000000 0.000000 0.000000 26.042111 1.808371 12.506182 55.536226 38.259592 9.533603 5.212505 53.035075 10.062071 0.000000 0.000000 0.000000 
0.028389 0.961272 1.487564 -5.980318 38.216334 -7.496790 7.915406 -0.785589 -6.110232 -3.787712 -0.219474 7.712563 0.793937 8.709154 10.659268 0.000000 0.000000 0.000000 -8.659609 -1.063885 -8.003583 7.562214 -4.364695 18.729318 -8.453768 -17.116078 11.934271 0.000000 0.000000 0.000000 -4.287693 -2.807461 26.862064 -6.801694 2.791117 -23.739298 -1.075629 18.161113 27.978496 17.153000 -1.669689 -29.123594 0.000000 0.000000 0.000000 -17.072978 -15.869661 -4.434058 -29.099713 -1.346851 -1.123042 -40.757478 -70.577698 21.507884 0.000000 0.000000 0.000000 27.670662 1.764256 13.401969 52.927735 38.601290 8.140065 1.295636 53.887136 8.244813 0.000000 0.000000 0.000000 
0.027353 0.959118 1.504735 -5.473430 38.095329 -6.639855 8.186137 -0.791044 -5.183904 -4.411283 -0.138367 7.039472 2.430484 10.424949 9.769884 0.000000 0.000000 0.000000 -9.416720 -1.225551 -8.350875 4.678022 -1.989447 11.759192 -8.118019 -15.251803 15.421911 0.000000 0.000000 0.000000 -3.476012 -2.881671 26.607270 -7.189793 2.868457 -23.742730 -0.988969 17.360763 27.079414 17.923023 -2.566939 -28.121325 0.000000 0.000000 0.000000 -16.435883 -16.196349 -3.676315 -28.423983 -1.811616 -1.087565 -38.169345 -70.772947 19.849120 0.000000 0.000000 0.000000 30.072008 0.927707 13.614122 50.337829 38.161033 6.387782 -0.868651 54.690967 7.178247 0.000000 0.000000 0.000000 
0.024283 0.956437 1.520704 -4.468785 38.829576 -5.864374 7.983001 -0.795221 -5.154830 -4.258742 -0.169136 7.211047 2.547662 10.264230 9.143919 0.000000 0.000000 0.000000 -9.815124 -1.323417 -8.090112 3.899146 -1.413907 8.761560 -7.696261 -14.237475 15.727105 0.000000 0.000000 0.000000 -3.088503 -3.086789 27.053668 -6.733904 2.749481 -24.095560 -1.382435 16.088480 26.716297 18.286427 -3.450700 -26.529708 0.000000 0.000000 0.000000 -15.711453 -16.874453 -2.672551 -28.061095 -2.382789 -1.132064 -36.787755 -69.182743 18.470019 0.000000 0.000000 0.000000 31.023573 1.419411 14.068886 49.178770 38.651660 6.033188 -3.356483 54.560450 5.677336 0.000000 0.000000 0.000000 
